<?xml version="1.0" standalone="no"?>
<!DOCTYPE svg PUBLIC "-//W3C//DTD SVG 20010904//EN"
 "http://www.w3.org/TR/2001/REC-SVG-20010904/DTD/svg10.dtd">
<svg version="1.0" xmlns="http://www.w3.org/2000/svg"
 width="600.000000pt" height="578.000000pt" viewBox="0 0 600.000000 578.000000"
 preserveAspectRatio="xMidYMid meet">

<g transform="translate(0.000000,578.000000) scale(0.100000,-0.100000)"
fill="#000000" stroke="none">
<path d="M3902 5755 c-149 -45 -243 -104 -368 -229 -208 -209 -334 -497 -374
-851 -31 -278 17 -531 143 -750 56 -97 190 -229 284 -278 101 -53 211 -80 291
-72 162 15 345 117 498 277 214 224 340 537 360 894 7 138 -13 345 -47 464
-59 213 -213 415 -383 502 -85 43 -140 58 -236 63 -71 5 -98 1 -168 -20z"/>
<path d="M1815 5753 c-129 -17 -242 -80 -349 -193 -178 -190 -241 -375 -240
-705 0 -239 33 -407 118 -610 85 -206 239 -405 400 -520 74 -53 231 -129 296
-144 171 -40 357 24 505 174 129 129 204 290 241 510 21 131 14 377 -16 517
-99 471 -368 823 -713 936 -91 29 -184 43 -242 35z"/>
<path d="M5267 4019 c-333 -81 -630 -387 -762 -783 -74 -221 -96 -481 -55
-652 39 -164 136 -331 241 -414 160 -126 331 -148 557 -70 262 89 506 338 639
652 85 201 129 484 104 670 -40 301 -213 532 -450 602 -72 21 -177 19 -274 -5z"/>
<path d="M452 3906 c-136 -33 -282 -138 -346 -249 -86 -147 -122 -377 -95
-602 63 -517 413 -953 862 -1074 196 -53 374 1 516 156 115 125 168 275 178
504 14 337 -104 661 -342 932 -128 147 -350 294 -500 332 -71 18 -200 18 -273
1z"/>
<path d="M2945 2773 c-281 -33 -562 -140 -790 -298 -220 -154 -416 -382 -624
-730 -129 -215 -246 -472 -309 -680 -117 -387 -122 -527 -24 -725 45 -92 159
-211 247 -257 100 -52 166 -67 295 -66 189 0 327 34 695 170 365 135 514 167
765 167 225 -1 328 -27 710 -181 289 -117 355 -140 450 -158 219 -43 452 18
588 153 107 106 145 205 145 382 0 300 -173 685 -547 1215 -336 478 -693 800
-1034 934 -154 61 -406 94 -567 74z"/>
</g>
</svg>
